<?xml version="1.0" standalone="no"?>
<!DOCTYPE svg PUBLIC "-//W3C//DTD SVG 20010904//EN"
 "http://www.w3.org/TR/2001/REC-SVG-20010904/DTD/svg10.dtd">
<svg version="1.0" xmlns="http://www.w3.org/2000/svg"
 width="1500.000000pt" height="818.000000pt" viewBox="0 0 1500.000000 818.000000"
 preserveAspectRatio="xMidYMid meet">

<g transform="translate(0.000000,818.000000) scale(0.100000,-0.100000)"
fill="#000000" stroke="none">
<path d="M8320 7748 c0 -5 11 -8 25 -8 14 0 25 3 25 8 0 4 -11 7 -25 7 -14 0
-25 -3 -25 -7z"/>
<path d="M5676 7620 c11 -4 36 -5 55 0 31 7 29 8 -21 8 -39 1 -49 -2 -34 -8z"/>
<path d="M3090 7550 c8 -5 22 -10 30 -10 13 0 13 1 0 10 -8 5 -22 10 -30 10
-13 0 -13 -1 0 -10z"/>
<path d="M2987 7539 c10 -10 111 -25 102 -15 -4 4 -30 10 -58 15 -29 5 -48 4
-44 0z"/>
<path d="M270 7421 c0 -6 4 -13 10 -16 6 -3 7 1 4 9 -7 18 -14 21 -14 7z"/>
<path d="M168 7390 c12 -5 22 -16 22 -25 0 -8 5 -15 10 -15 6 0 10 5 10 11 0
5 5 7 10 4 6 -3 10 0 10 8 0 18 -22 27 -58 26 -26 0 -26 -1 -4 -9z"/>
<path d="M25 7382 c15 -16 145 -28 145 -13 0 6 -10 11 -22 11 -13 0 -48 3 -78
6 -39 5 -52 3 -45 -4z"/>
<path d="M4195 7280 c11 -5 29 -8 40 -8 16 0 15 2 -5 8 -34 11 -60 11 -35 0z"/>
<path d="M4150 7260 c14 -4 34 -8 45 -9 16 -1 17 1 5 9 -8 5 -28 9 -45 9 -29
-1 -29 -1 -5 -9z"/>
<path d="M3033 6913 c9 -2 25 -2 35 0 9 3 1 5 -18 5 -19 0 -27 -2 -17 -5z"/>
<path d="M4228 6743 c7 -3 16 -2 19 1 4 3 -2 6 -13 5 -11 0 -14 -3 -6 -6z"/>
<path d="M4178 6733 c6 -2 18 -2 25 0 6 3 1 5 -13 5 -14 0 -19 -2 -12 -5z"/>
<path d="M12117 5393 c-3 -5 -6 -85 -8 -178 -2 -94 -5 -177 -7 -186 -2 -11
-19 -19 -53 -23 -71 -10 -78 -14 -84 -54 -11 -63 -26 -92 -49 -93 -11 -1 -30
-2 -41 -3 -13 -1 -21 -9 -23 -23 -3 -18 -10 -23 -33 -23 -24 0 -29 4 -29 23
l0 23 -177 2 c-234 3 -320 10 -327 29 -4 10 -10 11 -25 4 -25 -14 -37 1 -45
61 -5 34 -13 52 -29 60 -16 10 -123 14 -408 16 -441 4 -410 11 -417 -89 -4
-52 -7 -60 -28 -65 -13 -4 -44 -3 -69 0 -41 7 -45 5 -45 -13 0 -17 7 -21 38
-22 40 0 74 -11 73 -22 -2 -20 2 -19 9 3 6 20 8 14 9 -26 l1 -52 160 -7 c105
-5 159 -11 157 -18 -1 -6 6 -13 16 -15 14 -3 17 4 17 51 0 95 12 209 21 195 5
-8 9 -8 9 -2 0 8 31 11 95 10 52 -1 89 1 83 5 -14 9 87 11 115 3 15 -5 17 -20
17 -125 0 -119 0 -120 -22 -118 -13 1 -56 -1 -96 -5 -65 -7 -75 -6 -87 10 -14
18 -14 18 -15 -3 0 -13 4 -23 9 -23 5 0 3 -14 -6 -30 -19 -39 -38 -151 -54
-313 -14 -149 -16 -147 71 -147 30 0 291 -9 579 -20 288 -11 526 -18 529 -16
2 3 4 54 3 114 -1 60 1 132 5 161 l7 51 101 2 101 2 -93 3 c-69 3 -91 7 -85
16 5 9 4 9 -8 0 -12 -10 -14 1 -11 76 2 71 0 90 -13 101 -11 9 -55 15 -131 18
l-114 5 0 27 c0 47 17 52 147 45 165 -9 163 -8 163 -54 l0 -38 98 -6 c53 -4
147 -7 208 -7 61 0 172 -3 246 -6 l134 -7 -13 -41 c-7 -23 -15 -53 -18 -68 -3
-17 -12 -28 -23 -29 -10 0 -12 -3 -4 -6 6 -2 12 -12 12 -21 0 -14 -2 -14 -9
-3 -7 11 -10 10 -12 -4 -4 -17 -5 -18 -21 -2 -9 9 -27 17 -40 17 -17 0 -19 -3
-9 -9 22 -14 -6 -23 -52 -16 -31 4 -38 3 -27 -4 8 -6 50 -11 94 -11 l78 0 -5
-32 c-4 -18 -9 -66 -13 -105 l-7 -73 89 0 c65 0 99 -5 124 -18 32 -15 35 -22
38 -64 l3 -46 72 -6 c40 -3 220 -11 402 -17 244 -9 330 -9 333 0 2 6 27 -14
55 -44 l52 -54 300 -16 c386 -19 465 -25 465 -36 0 -5 -51 -9 -112 -9 -114 -1
-184 -15 -199 -42 -29 -50 -24 -49 -179 -38 -80 5 -176 11 -214 12 l-68 3 -61
72 c-58 69 -77 85 -77 64 0 -20 112 -151 133 -155 12 -3 112 -10 222 -16 110
-7 202 -13 203 -15 7 -6 -21 -79 -35 -93 -9 -10 -13 -10 -13 -1 0 9 -18 10
-72 4 -40 -4 -91 -7 -113 -7 -31 1 -36 -1 -20 -8 17 -7 15 -9 -13 -9 -18 -1
-31 2 -29 7 3 4 -9 8 -25 9 -29 2 -30 2 -12 -12 18 -14 18 -14 -9 -15 -16 0
-26 -4 -22 -10 3 -5 18 -10 32 -10 15 0 24 -3 20 -6 -3 -3 -70 -6 -149 -6
-142 0 -143 0 -53 -9 50 -4 172 -12 272 -17 101 -5 185 -11 188 -14 3 -3 -3
-59 -14 -124 -21 -126 -45 -348 -58 -529 -5 -76 -9 -101 -14 -80 l-7 30 -1
-33 -1 -34 -52 7 c-104 13 -284 36 -315 41 -26 4 -32 10 -35 32 -2 21 -9 28
-31 30 -28 3 -28 3 -25 -49 3 -53 3 -53 41 -62 33 -8 36 -11 21 -21 -9 -7 -18
-32 -21 -59 -5 -45 -5 -47 21 -49 14 0 32 -1 38 -2 7 -1 15 13 18 29 l6 30 17
-32 c10 -18 19 -33 20 -33 1 0 103 -7 226 -15 123 -8 227 -12 232 -9 5 3 9 36
9 75 0 56 4 73 20 89 24 24 -6 24 385 0 176 -11 328 -20 338 -20 16 0 17 32
17 539 l0 538 -77 7 c-42 3 -101 6 -130 6 -35 0 -97 13 -171 37 -102 31 -126
43 -189 93 -39 32 -80 64 -91 72 -12 8 -22 29 -25 48 -3 29 -4 27 -5 -13 l-2
-49 -112 7 c-62 4 -133 8 -158 10 l-45 3 -3 119 c-1 65 0 129 3 142 l6 24 194
-5 c107 -2 192 -1 189 4 -3 4 -60 9 -127 10 -97 1 -110 3 -62 8 42 4 55 8 42
14 -9 5 -33 5 -52 2 -28 -6 -34 -4 -29 7 4 12 -11 16 -74 22 l-80 7 2 70 1 71
195 -6 c107 -4 331 -10 498 -13 l302 -7 0 86 c0 80 -2 87 -20 88 -57 4 -65 6
-62 17 1 7 -2 12 -8 12 -5 0 -10 -8 -10 -17 0 -9 -3 -13 -6 -10 -4 3 -6 36 -5
72 1 63 0 66 -26 76 -17 7 -176 14 -403 19 -372 8 -509 5 -542 -11 -9 -5 -25
-36 -34 -69 -16 -57 -18 -60 -48 -61 -17 0 -40 -4 -51 -9 -15 -6 -8 -9 28 -9
52 -1 52 -1 41 -85 l-7 -46 -133 0 -133 0 6 70 6 70 -124 0 c-68 -1 -134 1
-146 4 -18 4 -24 -1 -29 -20 -4 -15 -13 -24 -25 -24 -16 0 -19 -8 -19 -45 0
-45 0 -45 -35 -45 -32 0 -35 2 -35 31 0 25 -6 32 -35 45 -45 18 -52 18 -58 -6
-3 -14 -14 -20 -31 -20 -24 0 -26 3 -26 44 0 44 0 45 38 49 25 3 22 4 -10 2
-26 -1 -45 2 -42 7 8 12 -10 10 -24 -4 -7 -7 -12 -8 -12 -2 0 5 -11 11 -23 12
-13 1 -37 8 -52 16 -28 15 -28 15 36 19 l64 3 -62 2 c-60 2 -63 3 -63 27 0 15
5 24 13 22 9 -1 11 46 9 218 -2 121 -7 223 -10 226 -10 10 -769 21 -775 12z
m581 -40 l172 -6 0 -185 c0 -172 -1 -184 -17 -177 -15 6 -428 22 -650 24 l-63
1 0 175 0 175 193 0 c105 0 270 -3 365 -7z m-1438 -514 c0 -12 -7 -19 -20 -19
-14 0 -20 7 -20 24 0 19 4 23 20 19 11 -3 20 -14 20 -24z m1647 15 c-3 -3 -12
-4 -19 -1 -8 3 -5 6 6 6 11 1 17 -2 13 -5z m63 -44 c0 -16 -7 -20 -33 -20 -26
0 -33 4 -33 20 0 16 7 20 33 20 26 0 33 -4 33 -20z m1103 -1087 c-13 -2 -35
-2 -50 0 -16 2 -5 4 22 4 28 0 40 -2 28 -4z m-113 -27 c0 -2 -7 -6 -15 -10 -8
-3 -15 -1 -15 4 0 6 7 10 15 10 8 0 15 -2 15 -4z"/>
<path d="M10000 5302 c-19 -6 -26 -17 -33 -51 -5 -23 -6 -46 -2 -49 4 -4 123
-8 266 -10 l259 -3 0 49 c0 43 -3 51 -22 56 -33 10 -439 17 -468 8z"/>
<path d="M7480 5165 l0 -75 -202 0 c-112 0 -213 -3 -225 -6 -28 -8 -29 -13
-25 -150 l3 -114 59 0 c37 0 60 -5 64 -12 5 -10 7 -10 12 0 3 6 12 12 20 12
11 0 13 17 9 90 l-4 90 69 0 70 0 -1 -42 c0 -33 -2 -38 -9 -23 -5 11 -9 14 -9
8 -1 -7 -10 -13 -21 -13 -12 0 -21 -7 -21 -17 -1 -10 -3 -27 -5 -38 -2 -11 -5
-32 -8 -46 l-4 -26 154 5 154 5 0 -31 c0 -19 -7 -35 -17 -41 -16 -9 -16 -10 5
-11 20 0 22 -5 22 -51 l0 -52 38 7 c79 14 77 14 80 -29 l3 -40 -61 3 -60 4 0
-48 0 -47 73 7 c49 4 67 3 57 -4 -8 -5 -41 -10 -72 -10 -43 0 -58 -4 -58 -14
0 -11 21 -13 115 -9 l115 4 1 -28 2 -28 6 30 c6 32 51 105 64 105 4 0 7 -6 8
-12 0 -7 2 -22 4 -32 2 -11 7 -150 11 -308 4 -169 11 -287 16 -286 5 2 10 8
10 13 0 17 -13 443 -18 560 l-4 110 -60 -3 -60 -4 0 99 c0 54 -3 135 -7 181
l-6 82 104 1 c86 2 95 3 50 8 -30 4 -56 12 -59 19 -2 7 -23 12 -51 12 l-46 0
-13 48 c-7 26 -12 86 -12 135 l1 87 -130 0 -131 0 0 -75z m237 -11 c-3 -36 -8
-68 -11 -71 -3 -3 -50 -2 -105 2 l-101 7 0 48 c0 81 -1 80 117 80 l105 0 -5
-66z"/>
<path d="M2353 5168 c-8 -9 -73 -622 -73 -687 0 -11 110 -19 385 -27 127 -4
233 -8 236 -10 4 -2 86 -4 183 -5 103 0 176 -4 176 -10 0 -5 5 -9 10 -9 6 0
10 14 10 31 l0 31 66 -4 67 -3 -7 80 c-10 128 -50 300 -77 329 -5 6 -8 30 -8
55 l2 46 6 -38 c3 -21 9 -38 14 -37 4 0 13 0 21 0 13 0 13 4 0 28 -7 15 -14
37 -14 49 0 12 -5 25 -11 29 -7 4 -10 27 -7 63 7 72 3 79 -35 85 -18 3 -235 8
-483 11 -365 5 -453 4 -461 -7z m902 -67 l30 -6 -25 -307 c-14 -168 -27 -309
-30 -312 -5 -5 -892 24 -898 29 -2 2 9 141 24 309 l28 306 420 -6 c232 -3 435
-9 451 -13z m59 -361 l-13 -125 6 114 c4 99 11 149 17 139 1 -2 -3 -59 -10
-128z m-17 -212 c-2 -18 -4 -6 -4 27 0 33 2 48 4 33 2 -15 2 -42 0 -60z m70
-25 c-3 -10 -5 -2 -5 17 0 19 2 27 5 18 2 -10 2 -26 0 -35z"/>
<path d="M9321 5144 c0 -11 3 -14 6 -6 3 7 2 16 -1 19 -3 4 -6 -2 -5 -13z"/>
<path d="M3668 5143 c6 -2 18 -2 25 0 6 3 1 5 -13 5 -14 0 -19 -2 -12 -5z"/>
<path d="M3710 5136 c3 -2 30 -7 60 -10 30 -3 64 -7 76 -10 12 -2 21 1 21 9 0
9 -23 13 -81 14 -44 1 -78 0 -76 -3z"/>
<path d="M8584 4945 c0 -110 2 -156 3 -103 2 53 2 143 0 200 -1 57 -3 13 -3
-97z"/>
<path d="M4488 5123 c12 -2 32 -2 45 0 12 2 2 4 -23 4 -25 0 -35 -2 -22 -4z"/>
<path d="M4615 5121 c50 -13 82 -39 89 -73 10 -49 7 -103 -6 -116 -14 -14 -3
-28 27 -35 11 -3 -43 -5 -120 -5 -87 0 -132 3 -120 8 11 5 15 9 9 9 -11 1 -32
68 -53 171 -8 37 -8 30 -5 -40 3 -47 7 -100 8 -117 l4 -33 -103 0 c-126 0
-131 -4 -114 -87 6 -32 13 -125 14 -208 l3 -150 64 2 c35 0 77 2 93 3 29 3 29
3 -10 15 -47 14 -60 40 -70 137 -11 111 -13 121 -24 166 -6 24 -9 47 -6 53 4
5 0 9 -7 9 -10 0 -9 3 2 9 8 6 18 7 22 5 4 -3 8 0 8 5 0 20 31 11 40 -11 5
-13 9 -17 9 -10 1 6 11 12 22 12 18 0 19 -2 9 -15 -10 -12 -10 -18 0 -29 6 -8
13 -40 15 -71 3 -42 10 -63 29 -86 14 -17 26 -37 26 -44 0 -7 3 -15 8 -17 13
-6 53 -88 42 -88 -5 0 -10 -7 -10 -16 0 -12 -7 -14 -29 -9 -18 4 -32 2 -37 -6
-4 -8 -3 -9 4 -5 6 4 30 2 53 -4 23 -6 112 -14 198 -18 l156 -7 -2 -28 c-2
-24 2 -28 20 -25 20 3 22 10 28 103 15 231 21 277 36 271 8 -3 94 -6 190 -6
l176 0 -6 -92 c-22 -327 -22 -300 2 -296 20 3 23 10 27 88 2 47 9 134 14 194
13 132 11 136 -74 136 -99 0 -166 11 -166 27 0 8 -7 27 -15 43 -14 27 -14 30
-1 30 11 0 14 8 11 28 -3 15 -7 45 -9 67 -6 63 -35 142 -54 150 -9 4 -114 9
-232 11 -118 2 -201 0 -185 -5z m338 -238 c-7 -2 -19 -2 -25 0 -7 3 -2 5 12 5
14 0 19 -2 13 -5z m84 -9 c-3 -3 -12 -4 -19 -1 -8 3 -5 6 6 6 11 1 17 -2 13
-5z m-484 -421 c-7 -2 -19 -2 -25 0 -7 3 -2 5 12 5 14 0 19 -2 13 -5z"/>
<path d="M5778 5104 c-20 -6 -23 -46 -12 -141 6 -46 9 -51 25 -43 20 11 131
12 199 2 40 -6 45 -10 48 -34 3 -25 0 -28 -25 -29 -50 -1 -100 -7 -120 -13
-20 -6 -20 -14 -19 -231 1 -215 2 -224 21 -229 11 -3 90 -6 176 -6 208 0 215
-2 217 -50 2 -34 -1 -39 -25 -48 l-28 -10 32 -1 32 -1 3 -137 3 -138 70 -3
c38 -2 72 -8 76 -13 3 -6 5 -44 4 -85 -2 -41 1 -74 6 -74 5 0 9 35 9 78 0 42
4 82 8 88 4 7 32 11 72 9 110 -4 110 -3 110 -25 0 -11 5 -20 10 -20 6 0 10 9
10 19 0 16 9 20 58 23 31 2 62 0 68 -4 7 -5 26 -6 43 -3 29 5 36 -1 32 -27 0
-5 4 -8 10 -8 6 0 8 7 5 16 -6 15 17 43 36 44 7 0 2 -122 -7 -182 -3 -20 0
-28 11 -28 13 0 15 17 13 110 -1 84 2 115 14 132 23 35 75 88 85 88 14 0 21
-87 27 -312 13 -484 15 -528 35 -528 12 0 17 6 14 18 -4 18 -37 809 -36 855
l1 27 -109 -6 -109 -7 -5 34 c-3 19 -7 108 -10 200 -3 91 -9 179 -12 197 l-6
32 158 2 c88 1 128 3 91 5 -46 3 -65 7 -61 15 4 7 3 8 -4 4 -7 -4 -18 -4 -24
1 -8 5 1 10 27 14 38 6 37 6 -16 8 -31 0 -84 4 -117 7 l-61 7 -11 53 c-8 37
-18 58 -33 65 -11 7 -90 16 -174 22 l-153 11 0 53 0 53 38 2 37 1 -34 4 c-41
5 -57 24 -65 75 -4 25 -14 42 -29 49 -22 13 -592 24 -629 13z m960 -856 c7 -7
12 -25 12 -41 l0 -28 -152 7 c-84 4 -184 10 -223 13 l-70 7 120 7 c66 4 158
16 205 26 47 10 87 19 91 20 3 1 10 -4 17 -11z m41 -204 c-11 -10 -30 -14 -60
-12 l-44 3 55 11 c30 7 57 12 60 13 2 0 -3 -6 -11 -15z m-124 -14 c-3 -6 -44
-9 -93 -8 l-87 2 75 6 c41 4 83 7 93 8 10 1 15 -2 12 -8z m-287 -27 c-10 -2
-28 -2 -40 0 -13 2 -5 4 17 4 22 1 32 -1 23 -4z m385 0 c-13 -2 -35 -2 -50 0
-16 2 -5 4 22 4 28 0 40 -2 28 -4z"/>
<path d="M3844 5092 c3 -5 0 -13 -6 -15 -9 -4 -10 -6 -1 -6 17 -1 25 16 12 25
-7 4 -9 3 -5 -4z"/>
<path d="M3912 5060 c0 -8 4 -26 8 -40 6 -20 8 -21 8 -5 0 11 -3 29 -8 40 -5
12 -8 14 -8 5z"/>
<path d="M11234 5005 c15 -11 53 -15 158 -16 76 -1 144 -2 151 -3 7 -1 12 -15
12 -34 0 -34 9 -42 19 -16 23 60 -41 84 -220 84 -124 -1 -137 -2 -120 -15z
m273 -1 c-3 -3 -12 -4 -19 -1 -8 3 -5 6 6 6 11 1 17 -2 13 -5z"/>
<path d="M3931 4943 c0 -30 3 -53 9 -53 11 0 11 31 0 75 -7 26 -8 22 -9 -22z"/>
<path d="M1161 4940 c0 -8 4 -24 9 -35 5 -13 9 -14 9 -5 0 8 -4 24 -9 35 -5
13 -9 14 -9 5z"/>
<path d="M1720 4940 c41 -4 83 -10 93 -15 9 -4 17 -3 17 3 0 15 -38 22 -115
20 l-70 -1 75 -7z"/>
<path d="M1880 4916 c27 -34 60 -189 60 -288 0 -94 1 -98 21 -98 21 0 22 3 15
68 -12 128 -72 332 -98 332 -6 0 -5 -6 2 -14z"/>
<path d="M11328 4923 c28 -2 76 -2 105 0 28 2 5 3 -53 3 -58 0 -81 -1 -52 -3z"/>
<path d="M3713 4903 c9 -2 25 -2 35 0 9 3 1 5 -18 5 -19 0 -27 -2 -17 -5z"/>
<path d="M5762 4875 c0 -16 2 -22 5 -12 2 9 2 23 0 30 -3 6 -5 -1 -5 -18z"/>
<path d="M1181 4864 c0 -11 3 -14 6 -6 3 7 2 16 -1 19 -3 4 -6 -2 -5 -13z"/>
<path d="M10820 4860 c0 -5 7 -7 15 -4 8 4 15 8 15 10 0 2 -7 4 -15 4 -8 0
-15 -4 -15 -10z"/>
<path d="M1196 4800 c3 -25 6 -90 7 -145 l3 -100 33 -3 34 -3 -7 48 c-3 27
-22 94 -41 149 -27 78 -33 89 -29 54z"/>
<path d="M8153 4780 c0 -36 2 -50 4 -32 2 17 2 47 0 65 -2 17 -4 3 -4 -33z"/>
<path d="M14968 4823 c6 -2 18 -2 25 0 6 3 1 5 -13 5 -14 0 -19 -2 -12 -5z"/>
<path d="M10745 4720 c-3 -5 1 -10 9 -10 9 0 16 5 16 10 0 6 -4 10 -9 10 -6 0
-13 -4 -16 -10z"/>
<path d="M7305 4708 c-41 -14 -57 -29 -51 -45 3 -7 0 -13 -6 -13 -6 0 -9 -2
-6 -5 13 -13 35 7 30 27 -4 17 -2 20 11 15 9 -3 19 -2 22 4 4 5 9 7 13 5 4 -2
13 2 20 10 15 16 9 17 -33 2z"/>
<path d="M8023 4660 c0 -30 2 -43 4 -27 2 15 2 39 0 55 -2 15 -4 2 -4 -28z"/>
<path d="M7305 4670 c-13 -6 -15 -9 -5 -9 8 0 22 4 30 9 18 12 2 12 -25 0z"/>
<path d="M228 4563 c-21 -2 -38 -8 -38 -12 0 -10 89 -2 110 10 16 9 0 9 -72 2z"/>
<path d="M7441 4488 c2 -101 17 -127 18 -31 1 45 -3 85 -9 88 -6 4 -10 -17 -9
-57z"/>
<path d="M10130 4540 c8 -5 33 -9 55 -9 31 0 36 2 20 9 -29 13 -94 13 -75 0z"/>
<path d="M8011 4510 c0 -19 4 -42 9 -50 7 -11 10 -8 9 15 0 17 -4 39 -9 50 -7
16 -9 14 -9 -15z"/>
<path d="M10271 4510 c-2 -14 -3 -29 -2 -34 1 -4 -3 -14 -9 -21 -6 -7 -7 -15
-2 -17 5 -1 7 -19 4 -38 -5 -32 -6 -33 -12 -10 -4 15 -7 -3 -8 -45 -1 -38 -4
-79 -6 -90 -2 -11 -5 -26 -5 -34 -1 -7 -7 -11 -16 -7 -8 3 -15 1 -15 -4 0 -6
15 -10 33 -10 l32 0 3 68 c4 86 9 102 33 102 11 0 22 7 25 15 4 8 15 15 25 15
29 0 24 -54 -11 -128 -35 -74 -34 -72 -17 -72 17 0 67 115 73 167 6 51 -4 62
-64 70 l-51 6 -4 46 c-2 25 -5 35 -6 21z"/>
<path d="M10182 4503 c5 -25 28 -28 28 -4 0 12 -6 21 -16 21 -9 0 -14 -7 -12
-17z"/>
<path d="M14340 4490 c0 -5 5 -10 10 -10 6 0 10 5 10 10 0 6 -4 10 -10 10 -5
0 -10 -4 -10 -10z"/>
<path d="M14420 4465 c0 -19 5 -35 10 -35 6 0 10 16 10 35 0 19 -4 35 -10 35
-5 0 -10 -16 -10 -35z"/>
<path d="M9973 4435 c0 -22 2 -30 4 -17 2 12 2 30 0 40 -3 9 -5 -1 -4 -23z"/>
<path d="M10180 4460 c0 -5 7 -10 15 -10 8 0 15 5 15 10 0 6 -7 10 -15 10 -8
0 -15 -4 -15 -10z"/>
<path d="M2288 4455 c-4 -4 -2 -16 5 -26 10 -16 24 -19 105 -19 52 0 103 5
115 12 19 10 20 9 9 -4 -11 -14 0 -16 105 -16 65 0 120 -1 123 -2 13 -5 200
-5 200 0 0 3 24 6 53 7 28 2 66 7 82 12 22 7 -6 10 -110 12 -77 1 -149 3 -160
4 -11 1 -112 5 -225 9 -113 4 -225 9 -250 12 -25 3 -48 2 -52 -1z m437 -35
c-3 -5 -12 -10 -18 -10 -7 0 -6 4 3 10 19 12 23 12 15 0z"/>
<path d="M7220 4353 c0 -58 2 -104 5 -102 8 8 10 209 3 209 -5 0 -8 -48 -8
-107z"/>
<path d="M934 4436 c-4 -10 5 -57 20 -104 14 -48 31 -112 38 -142 18 -79 14
-467 -5 -486 -3 -3 -34 -9 -70 -14 -35 -5 -117 -25 -181 -45 -63 -19 -126 -35
-138 -34 -14 0 -17 2 -8 6 8 2 22 7 30 10 8 4 17 7 20 7 22 5 29 18 18 35 -10
16 -30 20 -132 25 -227 13 -360 27 -372 39 -2 1 -8 58 -14 126 -11 131 -39
289 -65 361 -23 66 -21 73 22 66 21 -3 124 -7 228 -10 183 -4 186 -4 100 8
-66 9 -82 14 -60 18 22 4 16 5 -22 7 -29 0 -53 5 -53 10 0 4 -28 12 -62 16
-54 7 -85 10 -185 14 -7 1 -19 13 -27 29 -14 24 -15 -3 -16 -290 0 -270 2
-318 14 -318 10 0 16 13 19 38 l4 37 1 -41 c1 -27 7 -44 17 -48 9 -3 15 -18
15 -39 0 -19 3 -48 6 -64 l6 -30 156 -7 c87 -4 240 -14 342 -22 140 -11 197
-12 237 -4 29 6 53 14 53 18 0 4 27 8 61 10 41 2 59 0 54 -7 -3 -6 -1 -11 6
-11 9 0 9 -3 0 -14 -9 -11 -7 -15 13 -20 40 -10 228 -8 238 2 7 7 -1 10 -23 9
-25 -2 -34 3 -37 16 -9 44 6 47 57 13 70 -47 128 -63 256 -71 200 -11 418 -25
560 -35 423 -31 646 -44 788 -45 86 -1 160 -5 164 -8 3 -4 17 -7 30 -7 20 0
22 3 13 19 -7 13 -7 22 0 26 16 10 11 43 -7 49 -33 10 -137 -3 -197 -24 -45
-15 -62 -17 -70 -9 -8 9 -6 10 6 6 10 -3 20 -2 23 4 9 14 -8 17 -130 24 -60 3
-130 8 -155 10 -25 3 -97 10 -160 15 -63 6 -116 12 -117 14 -2 2 -8 64 -13
137 -11 149 -31 276 -61 389 -20 76 -22 96 -11 94 4 -1 90 -4 192 -7 130 -3
158 -3 95 3 -49 5 -138 9 -196 10 l-107 2 -26 61 c-14 33 -24 62 -22 65 3 2
156 -2 340 -9 l336 -13 228 43 c210 39 291 59 252 60 -9 1 -124 -20 -255 -45
l-240 -46 -335 12 c-309 11 -336 13 -351 31 -10 10 -29 23 -43 29 -34 12 -266
27 -651 40 -165 6 -330 14 -367 17 -58 5 -69 3 -74 -11z m284 -58 c3 -13 4
-25 3 -27 -2 -2 2 -7 8 -10 14 -9 53 -161 47 -183 -2 -10 0 -18 5 -18 5 0 9
-6 9 -14 0 -7 7 -27 15 -42 14 -27 14 -30 -3 -44 -10 -8 -21 -23 -25 -33 -6
-15 -3 -17 13 -12 11 4 20 2 20 -4 0 -6 -4 -11 -9 -11 -6 0 -7 -16 -4 -35 4
-28 1 -39 -13 -50 -11 -8 -22 -15 -25 -15 -18 -1 -28 66 -25 170 2 104 0 120
-21 164 -13 27 -22 55 -19 62 3 8 1 16 -4 19 -13 8 -30 74 -23 91 8 23 44 17
51 -8z m-198 -88 c6 -11 8 -20 6 -20 -3 0 -10 9 -16 20 -6 11 -8 20 -6 20 3 0
10 -9 16 -20z m-703 4 c-3 -3 -12 -4 -19 -1 -8 3 -5 6 6 6 11 1 17 -2 13 -5z
m-270 -391 c-2 -16 -4 -3 -4 27 0 30 2 43 4 28 2 -16 2 -40 0 -55z m2100 -85
c-3 -7 -5 -2 -5 12 0 14 2 19 5 13 2 -7 2 -19 0 -25z m-877 -30 c0 -10 2 -10
9 0 5 9 7 -1 6 -25 -3 -52 -3 -53 -19 -53 -10 0 -14 13 -14 45 1 25 5 45 10
45 4 0 8 -6 8 -12z m867 -120 c-2 -13 -4 -3 -4 22 0 25 2 35 4 23 2 -13 2 -33
0 -45z m-862 14 c-3 -3 -11 0 -18 7 -9 10 -8 11 6 5 10 -3 15 -9 12 -12z
m-305 -42 c0 -5 -12 -10 -27 -9 l-28 1 25 8 c14 4 26 8 28 9 1 1 2 -3 2 -9z
m314 -18 c3 -5 -1 -9 -9 -9 -8 0 -12 4 -9 9 3 4 7 8 9 8 2 0 6 -4 9 -8z m1716
-142 c0 -5 -2 -10 -4 -10 -3 0 -8 5 -11 10 -3 6 -1 10 4 10 6 0 11 -4 11 -10z
m-40 -10 c-8 -5 -19 -10 -25 -10 -5 0 -3 5 5 10 8 5 20 10 25 10 6 0 3 -5 -5
-10z"/>
<path d="M4063 4420 c-13 -5 -23 -12 -23 -15 0 -8 53 6 65 16 12 12 -13 11
-42 -1z"/>
<path d="M14733 4423 c9 -2 23 -2 30 0 6 3 -1 5 -18 5 -16 0 -22 -2 -12 -5z"/>
<path d="M14968 4413 c6 -2 18 -2 25 0 6 3 1 5 -13 5 -14 0 -19 -2 -12 -5z"/>
<path d="M9937 4311 c-4 -35 -5 -67 -2 -69 12 -12 16 10 13 69 l-3 64 -8 -64z"/>
<path d="M8550 4340 c0 -5 7 -10 15 -10 8 0 15 5 15 10 0 6 -7 10 -15 10 -8 0
-15 -4 -15 -10z"/>
<path d="M14006 4289 c-3 -34 -6 -74 -5 -88 l1 -26 8 27 c14 47 23 148 12 148
-5 0 -12 -28 -16 -61z"/>
<path d="M14047 4343 c-4 -3 -7 -40 -7 -81 0 -94 9 -88 19 12 6 71 4 86 -12
69z"/>
<path d="M3382 4329 c-18 -6 -35 -16 -38 -24 -3 -8 4 -73 16 -145 19 -115 21
-160 18 -367 -2 -174 -6 -237 -15 -240 -9 -3 -11 -22 -7 -61 7 -78 8 -80 46
-84 l33 -3 3 -62 c3 -61 3 -62 -29 -78 -24 -13 -29 -19 -18 -26 8 -5 26 -9 42
-9 27 0 27 -1 27 -65 0 -36 4 -65 9 -65 5 0 7 -9 4 -20 -5 -18 0 -20 41 -20
27 0 63 9 87 20 l39 21 108 -21 c59 -11 154 -26 212 -33 l105 -13 0 -119 c0
-66 -2 -264 -4 -440 l-4 -320 24 0 24 0 3 439 2 438 63 -6 c132 -12 358 -16
497 -8 134 8 146 7 160 -10 11 -13 26 -18 55 -16 34 3 40 0 41 -17 1 -11 2
-40 4 -65 l2 -45 7 35 c4 20 10 41 14 46 3 6 2 25 -3 43 -9 31 -8 31 28 31 34
0 47 10 162 128 108 111 166 162 184 162 9 0 20 -182 41 -710 8 -206 18 -412
21 -458 6 -83 6 -83 32 -80 24 3 27 7 25 38 -2 19 -8 127 -13 240 -6 113 -20
378 -32 590 -11 212 -20 405 -19 428 l1 44 -57 -5 c-32 -2 -74 -8 -93 -11 -44
-9 -164 -9 -251 -1 l-66 7 -11 196 c-19 313 -71 617 -115 673 -30 38 -119 47
-587 54 -190 4 -428 10 -530 16 -217 11 -244 10 -288 -2z m271 -895 c29 -15
81 -37 116 -49 l64 -21 -34 -21 c-86 -53 -193 -103 -201 -95 -11 11 -23 174
-15 196 8 21 9 21 70 -10z m1047 -34 c0 -5 -12 -10 -27 -9 -25 0 -26 1 -8 9
27 12 35 12 35 0z m-829 -314 c213 -36 437 -50 704 -43 127 3 239 9 250 12 19
6 19 6 1 -5 -33 -22 -510 -25 -716 -6 -161 15 -398 51 -409 61 -8 9 25 5 170
-19z m926 10 c-10 -8 -60 -17 -123 -21 -120 -8 -152 -1 -42 9 40 4 89 11 108
16 19 4 44 8 55 9 19 0 19 0 2 -13z m-1260 -12 c-3 -3 -12 -4 -19 -1 -8 3 -5
6 6 6 11 1 17 -2 13 -5z m1336 -81 c-7 -2 -19 -2 -25 0 -7 3 -2 5 12 5 14 0
19 -2 13 -5z"/>
<path d="M7788 4253 c-2 -43 0 -114 3 -158 4 -63 6 -47 7 78 2 164 -4 214 -10
80z"/>
<path d="M882 4295 c0 -16 2 -22 5 -12 2 9 2 23 0 30 -3 6 -5 -1 -5 -18z"/>
<path d="M14370 4280 c0 -5 11 -15 24 -22 14 -7 55 -35 92 -62 61 -45 87 -55
278 -113 116 -34 217 -63 224 -63 8 0 12 15 12 43 l0 42 -268 78 c-147 42
-288 84 -314 92 -27 8 -48 10 -48 5z"/>
<path d="M5910 4220 c-9 -6 -10 -10 -3 -10 6 0 15 5 18 10 8 12 4 12 -15 0z"/>
<path d="M14362 4210 c0 -14 2 -19 5 -12 2 6 2 18 0 25 -3 6 -5 1 -5 -13z"/>
<path d="M5915 4170 c-3 -6 1 -7 9 -4 18 7 21 14 7 14 -6 0 -13 -4 -16 -10z"/>
<path d="M7202 4140 c0 -19 3 -55 7 -80 8 -42 9 -42 9 -10 0 19 -3 55 -7 80
-8 42 -9 42 -9 10z"/>
<path d="M5676 4141 c-4 -5 3 -7 14 -4 23 6 26 13 6 13 -8 0 -17 -4 -20 -9z"/>
<path d="M10563 4101 c-90 -9 -102 -23 -118 -152 -15 -113 -51 -976 -42 -985
3 -3 51 -9 107 -13 97 -6 103 -5 111 14 7 18 8 18 8 2 1 -10 6 -15 11 -12 6 4
8 10 6 14 -6 9 60 6 91 -4 13 -4 20 -11 17 -16 -3 -5 5 -9 17 -9 16 0 19 3 11
13 -9 10 -4 13 26 11 20 -1 48 -5 61 -10 19 -6 22 -4 20 11 -3 15 -15 19 -66
20 -35 1 -63 -3 -63 -7 0 -5 -5 -6 -10 -3 -6 4 -8 11 -5 16 4 5 2 9 -4 9 -6 0
-19 10 -31 22 -11 12 -20 18 -20 14 0 -5 -7 -3 -15 4 -10 9 -15 9 -15 1 0 -6
-6 -11 -14 -11 -8 0 -17 -8 -19 -17 -2 -10 -2 -2 0 17 3 19 8 39 13 44 5 5 67
-11 142 -36 73 -25 158 -51 188 -58 57 -14 87 -30 56 -30 -10 0 -14 -5 -11
-11 4 -6 13 -8 21 -5 8 3 14 1 14 -5 0 -5 17 -10 38 -9 20 0 60 -2 87 -4 28
-3 77 -7 110 -10 178 -16 298 -18 306 -4 6 8 9 9 9 1 0 -6 14 -15 31 -18 24
-6 34 -3 41 9 5 9 14 16 20 16 7 0 6 -5 -2 -15 -11 -13 -8 -15 21 -14 28 0 31
2 14 9 -20 9 -20 9 1 9 11 1 26 -5 33 -11 11 -11 13 -10 9 2 -4 12 3 15 33 15
22 0 39 -3 39 -7 0 -13 135 -9 148 4 8 8 12 8 12 1 0 -21 -28 -34 -61 -28 -21
4 -30 3 -24 -3 9 -8 394 -42 468 -42 26 0 28 3 26 33 -4 66 1 97 16 97 10 0
15 10 15 34 0 19 3 41 6 50 4 12 0 16 -15 16 -21 0 -21 1 -21 336 l0 337 173
-7 c94 -3 222 -9 282 -11 281 -13 340 -14 297 -5 -23 5 -97 11 -165 14 -67 3
-185 10 -262 15 -77 5 -158 10 -180 11 l-40 2 34 9 c44 13 37 17 -34 19 -98 3
-95 0 -95 93 0 91 -13 126 -52 145 -49 23 -182 33 -593 42 -225 5 -529 16
-675 24 -355 20 -463 23 -537 17z m112 -1081 c-3 -5 -14 -10 -23 -10 -15 0
-15 2 -2 10 20 13 33 13 25 0z m15 -30 c0 -5 -2 -10 -4 -10 -3 0 -8 5 -11 10
-3 6 -1 10 4 10 6 0 11 -4 11 -10z m1330 -35 l-25 -15 30 5 c27 5 28 4 8 -6
-17 -9 -26 -8 -45 6 -12 10 -16 15 -7 12 9 -3 22 -1 30 4 8 5 19 9 24 8 6 0
-1 -6 -15 -14z m-934 -23 c-4 -3 -14 2 -24 12 -16 18 -16 18 6 6 13 -6 21 -14
18 -18z m868 -13 c5 -4 -1 -5 -14 -2 -16 4 -21 3 -16 -6 6 -8 1 -8 -18 0 -14
7 -23 16 -20 20 6 10 54 1 68 -12z m63 -34 c0 -8 -7 -15 -15 -15 -12 0 -12 3
-2 15 7 8 13 15 15 15 1 0 2 -7 2 -15z m57 7 c2 -4 -7 -9 -22 -10 -21 -1 -24
0 -12 8 18 12 27 12 34 2z"/>
<path d="M12473 4093 c15 -2 37 -2 50 0 12 2 0 4 -28 4 -27 0 -38 -2 -22 -4z"/>
<path d="M12648 4083 c7 -3 16 -2 19 1 4 3 -2 6 -13 5 -11 0 -14 -3 -6 -6z"/>
<path d="M12778 4083 c6 -2 18 -2 25 0 6 3 1 5 -13 5 -14 0 -19 -2 -12 -5z"/>
<path d="M4970 4070 c63 -4 156 -7 205 -7 l90 0 -85 8 c-47 4 -139 7 -205 6
l-120 0 115 -7z"/>
<path d="M5368 4053 c7 -3 16 -2 19 1 4 3 -2 6 -13 5 -11 0 -14 -3 -6 -6z"/>
<path d="M6081 3943 c1 -26 5 -61 9 -78 6 -22 8 -11 8 43 -1 40 -5 75 -10 78
-4 3 -7 -16 -7 -43z"/>
<path d="M7779 3920 c-1 -30 -2 -79 -3 -107 -1 -38 2 -53 11 -53 10 0 13 23
13 93 0 102 -19 161 -21 67z"/>
<path d="M8160 3960 c0 -5 9 -10 20 -10 11 0 20 5 20 10 0 6 -9 10 -20 10 -11
0 -20 -4 -20 -10z"/>
<path d="M6883 3905 c0 -22 2 -30 4 -17 2 12 2 30 0 40 -3 9 -5 -1 -4 -23z"/>
<path d="M8013 3833 c9 -2 23 -2 30 0 6 3 -1 5 -18 5 -16 0 -22 -2 -12 -5z"/>
<path d="M9740 3738 c0 -57 3 -78 10 -68 13 20 13 150 0 150 -6 0 -10 -34 -10
-82z"/>
<path d="M12430 3809 c0 -5 28 -9 62 -9 34 0 59 2 57 4 -10 8 -119 14 -119 5z"/>
<path d="M5608 3731 c-5 -35 -7 -96 -7 -135 l2 -71 9 85 c5 47 7 108 6 135
l-3 50 -7 -64z"/>
<path d="M12598 3768 c9 -9 15 -9 24 0 9 9 7 12 -12 12 -19 0 -21 -3 -12 -12z"/>
<path d="M6869 3758 c0 -7 -3 -25 -5 -40 -3 -16 0 -28 6 -28 5 0 10 18 10 40
0 22 -2 40 -5 40 -3 0 -5 -6 -6 -12z"/>
<path d="M12868 3753 c7 -3 16 -2 19 1 4 3 -2 6 -13 5 -11 0 -14 -3 -6 -6z"/>
<path d="M13210 3708 c0 -5 26 -7 58 -7 61 1 55 6 -15 11 -24 2 -43 0 -43 -4z"/>
<path d="M13818 3713 c7 -3 16 -2 19 1 4 3 -2 6 -13 5 -11 0 -14 -3 -6 -6z"/>
<path d="M13373 3693 c20 -2 54 -2 75 0 20 2 3 4 -38 4 -41 0 -58 -2 -37 -4z"/>
<path d="M13568 3683 c6 -2 18 -2 25 0 6 3 1 5 -13 5 -14 0 -19 -2 -12 -5z"/>
<path d="M2440 3630 c-6 -12 -10 -33 -8 -48 2 -22 5 -18 14 21 12 51 11 58 -6
27z"/>
<path d="M3103 3588 c0 -13 -4 -31 -8 -40 -5 -13 -3 -18 9 -18 12 0 16 10 16
40 0 41 -16 58 -17 18z"/>
<path d="M2510 3580 c0 -5 7 -10 15 -10 8 0 15 5 15 10 0 6 -7 10 -15 10 -8 0
-15 -4 -15 -10z"/>
<path d="M9667 3508 c-10 -129 -9 -196 4 -178 11 15 8 -64 -8 -247 -4 -50 -2
-73 5 -73 23 0 29 100 22 393 -2 103 -7 187 -10 187 -4 0 -10 -37 -13 -82z"/>
<path d="M30 3571 c-14 -4 -26 -15 -28 -24 -5 -24 10 -21 44 8 30 26 27 28
-16 16z"/>
<path d="M5132 3457 c-1 -11 -7 -15 -14 -11 -8 5 -9 2 -5 -10 4 -10 7 -25 7
-34 0 -11 3 -13 11 -5 6 6 9 26 6 44 -2 19 -5 26 -5 16z"/>
<path d="M5492 3431 c2 -32 7 -41 21 -41 15 0 18 7 15 37 -3 26 -9 39 -21 41
-15 3 -17 -3 -15 -37z"/>
<path d="M5752 3425 c-6 -14 -9 -31 -6 -38 3 -8 -2 -44 -10 -81 -9 -37 -16
-94 -16 -127 0 -51 2 -59 19 -59 18 0 19 10 23 163 2 89 3 163 2 165 0 1 -6
-9 -12 -23z"/>
<path d="M6190 3384 c0 -32 4 -44 13 -41 17 5 18 87 1 87 -10 0 -14 -14 -14
-46z"/>
<path d="M7485 3410 c-25 -6 -27 -8 -12 -15 10 -4 28 -3 39 2 29 13 11 21 -27
13z"/>
<path d="M5571 3334 c1 -97 13 -174 24 -151 4 10 4 44 0 75 -4 31 -9 74 -10
95 -4 67 -15 52 -14 -19z"/>
<path d="M6860 3357 c0 -9 -5 -17 -11 -17 -8 0 -7 -5 1 -15 10 -12 10 -21 1
-41 -6 -14 -11 -74 -11 -135 0 -100 2 -110 18 -107 15 3 17 17 13 163 -2 88
-5 162 -7 164 -2 2 -4 -3 -4 -12z"/>
<path d="M3370 3299 c0 -5 5 -7 10 -4 6 3 10 8 10 11 0 2 -4 4 -10 4 -5 0 -10
-5 -10 -11z"/>
<path d="M3180 3279 c-19 -11 -28 -19 -20 -19 8 1 31 9 50 20 19 11 28 19 20
18 -8 0 -31 -9 -50 -19z"/>
<path d="M3095 3260 c-4 -6 1 -7 11 -3 12 4 15 3 10 -5 -5 -8 -2 -10 9 -5 13
5 14 7 3 14 -17 11 -26 11 -33 -1z"/>
<path d="M3025 3240 c-11 -5 -15 -9 -8 -9 6 -1 18 -3 26 -6 8 -4 14 0 14 10 0
17 -3 17 -32 5z"/>
<path d="M3278 3233 c7 -3 16 -2 19 1 4 3 -2 6 -13 5 -11 0 -14 -3 -6 -6z"/>
<path d="M7241 3216 c-1 -26 -4 -28 -31 -24 -19 3 -29 1 -27 -6 4 -14 57 -21
66 -9 4 4 4 22 0 38 l-7 30 -1 -29z"/>
<path d="M2936 3211 c-19 -7 -18 -8 4 -14 13 -3 26 -4 29 -2 2 3 -2 5 -10 5
-11 0 -11 2 1 10 18 11 3 12 -24 1z"/>
<path d="M3090 3200 c-13 -8 -13 -10 2 -10 9 0 20 5 23 10 8 13 -5 13 -25 0z"/>
<path d="M3210 3204 c-52 -17 -89 -38 -79 -45 6 -3 20 2 30 12 11 11 27 19 37
19 9 0 24 5 32 10 16 10 6 12 -20 4z"/>
<path d="M3020 3180 c-13 -9 -13 -10 0 -10 8 0 22 5 30 10 13 9 13 10 0 10 -8
0 -22 -5 -30 -10z"/>
<path d="M2840 3159 c-19 -11 -28 -19 -19 -19 8 0 19 4 25 9 5 5 18 11 29 13
11 2 16 6 10 10 -5 3 -26 -3 -45 -13z"/>
<path d="M3000 3130 c-8 -5 -10 -10 -5 -10 6 0 17 5 25 10 8 5 11 10 5 10 -5
0 -17 -5 -25 -10z"/>
<path d="M2676 3110 c-16 -5 -34 -6 -39 -3 -6 3 -7 2 -4 -4 4 -6 -19 -18 -54
-28 -33 -10 -62 -22 -65 -27 -3 -4 -15 -9 -27 -9 -12 -1 -15 -3 -7 -5 8 -2 69
16 135 41 107 39 140 58 61 35z"/>
<path d="M2830 3110 c0 -5 4 -10 9 -10 6 0 13 5 16 10 3 6 -1 10 -9 10 -9 0
-16 -4 -16 -10z"/>
<path d="M2888 3097 c-38 -12 -68 -25 -68 -29 0 -12 10 -10 90 21 87 35 75 39
-22 8z"/>
<path d="M2762 3100 c2 -6 7 -11 11 -11 4 1 17 1 29 1 27 0 21 5 -15 14 -20 5
-28 3 -25 -4z"/>
<path d="M2730 3079 c0 -5 -3 -8 -7 -6 -5 2 -24 -2 -43 -9 -36 -15 -35 -15 40
1 8 2 21 4 28 4 17 1 15 21 -3 21 -8 0 -15 -5 -15 -11z"/>
<path d="M2448 3057 c-16 -6 -28 -14 -28 -19 0 -13 13 -9 45 12 33 22 26 24
-17 7z"/>
<path d="M2720 3044 c-25 -13 -58 -25 -73 -28 -15 -3 -52 -14 -83 -25 -30 -12
-63 -21 -74 -21 -10 0 -20 -3 -22 -7 -4 -11 -147 -57 -154 -51 -3 3 12 12 33
18 21 7 43 16 48 20 6 4 25 11 43 15 37 8 44 26 8 19 -14 -2 -72 -20 -129 -39
-57 -19 -112 -36 -123 -38 -10 -2 -30 -9 -44 -14 -26 -11 -48 -6 -33 7 4 4 35
15 68 25 111 32 190 62 188 71 -1 5 14 9 33 10 19 0 39 5 44 10 14 14 -55 11
-110 -5 -25 -7 -70 -20 -100 -28 -30 -9 -116 -37 -190 -63 -158 -55 -193 -66
-238 -75 -18 -4 -30 -11 -27 -16 4 -5 -1 -6 -9 -3 -9 3 -30 -3 -48 -14 -18
-11 -67 -30 -108 -43 -41 -12 -84 -28 -95 -35 -11 -7 -46 -18 -77 -25 -32 -7
-58 -16 -58 -22 0 -5 -9 -7 -20 -4 -11 3 -20 1 -20 -4 0 -5 -6 -9 -12 -9 -7 0
-40 -14 -73 -30 -33 -16 -66 -30 -73 -30 -7 0 -10 -5 -7 -11 4 -6 0 -9 -10 -7
-10 2 -20 -3 -22 -9 -3 -7 3 -13 13 -13 17 0 17 -1 -1 -14 -25 -18 -13 -50 16
-41 15 5 19 4 15 -4 -4 -6 -14 -11 -22 -11 -8 0 -14 -5 -14 -11 0 -8 -18 -10
-55 -7 -30 3 -55 1 -55 -2 0 -4 26 -10 58 -12 50 -5 74 1 197 44 363 128 533
193 528 202 -3 5 -1 6 5 2 11 -7 111 27 532 179 96 35 235 84 308 110 72 27
132 51 132 54 0 15 -49 7 -90 -15z m-410 -64 c-8 -5 -22 -9 -30 -9 -10 0 -8 3
5 9 27 12 43 12 25 0z m-65 -20 c-27 -12 -43 -12 -25 0 8 5 22 9 30 9 10 0 8
-3 -5 -9z m-86 -24 c-2 -2 -18 -7 -34 -11 l-30 -6 30 14 c27 13 45 14 34 3z
m135 -35 c-5 -5 -56 -25 -114 -44 -102 -36 -221 -78 -306 -110 -41 -15 -42
-15 -36 6 3 12 7 16 9 10 5 -13 6 -13 118 30 44 17 83 36 87 43 5 7 16 10 25
8 20 -5 126 30 118 38 -3 3 1 8 10 12 10 4 14 2 9 -5 -4 -7 -1 -10 7 -7 8 3
13 9 12 14 -1 5 15 10 34 11 20 1 32 -2 27 -6z m-307 -27 c-16 -9 -31 -13 -34
-10 -3 3 5 10 18 15 37 15 47 12 16 -5z m103 6 c0 -13 -28 -26 -70 -34 l-35
-7 30 18 c17 9 38 16 48 14 9 -1 17 3 17 8 0 6 2 11 5 11 3 0 5 -4 5 -10z
m-183 -36 c-3 -3 -12 -4 -19 -1 -8 3 -5 6 6 6 11 1 17 -2 13 -5z m68 -4 c3 -6
-1 -7 -9 -4 -18 7 -21 14 -7 14 6 0 13 -4 16 -10z m-145 -50 c0 -5 -5 -10 -11
-10 -5 0 -7 5 -4 10 3 6 8 10 11 10 2 0 4 -4 4 -10z m-20 -34 c0 -2 -13 -8
-28 -14 -21 -7 -29 -7 -29 2 0 6 13 12 29 13 15 1 28 1 28 -1z m-77 -33 c-97
-31 -248 -72 -251 -68 -3 3 0 5 7 5 7 0 9 5 5 12 -5 7 -3 8 5 3 18 -11 106 15
89 27 -8 6 -4 7 12 3 14 -3 45 2 70 10 45 15 45 15 7 10 -21 -4 -46 -8 -55
-11 -9 -2 0 4 21 15 32 15 44 17 68 7 17 -6 26 -12 22 -13z m-13 -42 c-14 -5
-39 -15 -55 -23 -17 -9 -41 -18 -55 -22 -14 -3 2 7 35 24 33 16 69 29 80 29
16 -1 15 -2 -5 -8z m-253 -26 c0 -8 -14 -19 -30 -25 -37 -12 -67 -13 -67 -1 0
5 10 7 23 5 12 -2 16 -1 7 3 -10 4 -2 10 25 19 22 6 40 12 41 13 0 1 1 -6 1
-14z m93 -14 c-19 -11 -38 -17 -42 -14 -5 2 -8 0 -8 -4 0 -9 -86 -43 -105 -43
-13 1 94 51 117 55 10 2 26 8 35 14 10 6 23 10 28 10 6 0 -6 -8 -25 -18z
m-200 -15 c0 -2 -7 -7 -16 -10 -8 -3 -12 -2 -9 4 6 10 25 14 25 6z m215 -5
c-6 -5 -21 -12 -35 -15 l-25 -7 25 15 c28 17 50 21 35 7z m-199 -48 c-11 -11
-48 -14 -41 -3 3 5 16 10 27 10 12 0 18 -3 14 -7z m-57 -17 c-8 -8 -109 -46
-109 -40 0 7 81 42 99 43 8 1 12 -1 10 -3z"/>
<path d="M2594 3041 c4 -5 -3 -7 -14 -4 -12 3 -20 0 -20 -6 0 -7 -4 -10 -9 -6
-6 3 -25 -1 -43 -9 -33 -14 -33 -14 -6 -15 15 -1 29 3 32 7 2 4 22 9 43 10 21
2 45 9 53 17 12 13 11 15 -13 15 -16 0 -26 -4 -23 -9z"/>
<path d="M12573 3017 c-7 -15 -10 -40 -7 -56 3 -16 1 -37 -5 -48 -9 -16 -11
-14 -12 12 -1 27 -2 26 -10 -10 -15 -74 -12 -95 15 -95 23 0 25 4 31 83 4 45
5 95 3 112 l-3 30 -12 -28z"/>
<path d="M9865 3010 c3 -5 22 -10 41 -10 19 0 34 5 34 10 0 6 -18 10 -41 10
-24 0 -38 -4 -34 -10z"/>
<path d="M10920 2966 c0 -7 11 -16 25 -18 17 -4 25 -1 25 9 0 9 -6 13 -15 9
-8 -3 -15 -1 -15 4 0 6 -4 10 -10 10 -5 0 -10 -6 -10 -14z"/>
<path d="M10675 2950 c28 -12 37 -12 30 0 -3 6 -16 10 -28 9 -21 0 -21 -1 -2
-9z"/>
<path d="M10980 2946 c0 -9 5 -16 10 -16 6 0 10 4 10 9 0 6 -4 13 -10 16 -5 3
-10 -1 -10 -9z"/>
<path d="M10895 2939 c-15 -6 -11 -8 18 -8 20 -1 37 1 37 3 0 9 -37 12 -55 5z"/>
<path d="M4949 2889 c0 -13 -9 -125 -19 -249 -11 -124 -21 -245 -24 -270 -2
-25 -9 -108 -16 -185 -13 -152 -26 -203 -17 -65 3 50 2 75 -3 60 -11 -35 -11
-127 0 -175 6 -26 6 -58 -1 -92 -11 -56 -24 -68 -33 -30 -3 12 -3 -30 -1 -93
3 -63 5 -159 5 -212 l0 -98 29 0 c17 0 32 3 34 8 3 4 1 84 -5 179 -9 155 -6
219 27 703 20 292 34 534 31 538 -3 3 -6 -6 -7 -19z"/>
<path d="M11878 2873 c7 -3 16 -2 19 1 4 3 -2 6 -13 5 -11 0 -14 -3 -6 -6z"/>
<path d="M0 2650 c0 -44 3 -80 8 -80 4 0 196 -18 427 -40 455 -43 489 -45 480
-30 -3 6 -25 8 -48 5 -31 -3 -35 -2 -17 4 22 7 19 9 -25 15 -27 3 -84 11 -125
16 -41 6 -91 11 -110 12 -19 0 -3 4 35 7 48 5 78 3 95 -6 30 -15 43 -17 35 -3
-8 13 11 13 37 -1 12 -7 18 -7 14 -1 -3 6 0 13 6 15 7 3 -1 6 -19 6 -18 1 -56
6 -85 12 -51 12 -74 15 -110 18 -10 0 -18 6 -18 12 0 7 20 9 63 5 144 -15 164
-16 132 -6 -16 5 -52 12 -80 16 -27 4 -45 9 -38 11 6 2 41 0 77 -5 36 -5 66
-6 66 -2 0 4 -35 12 -77 18 -80 12 -115 16 -448 52 -104 11 -209 22 -232 25
l-43 5 0 -80z m773 -137 c-7 -2 -19 -2 -25 0 -7 3 -2 5 12 5 14 0 19 -2 13 -5z"/>
<path d="M14546 2695 c4 -8 8 -15 10 -15 2 0 4 7 4 15 0 8 -4 15 -10 15 -5 0
-7 -7 -4 -15z"/>
<path d="M14633 2690 c1 -11 5 -20 9 -20 4 0 8 9 8 20 0 11 -4 20 -9 20 -6 0
-9 -9 -8 -20z"/>
<path d="M2960 2692 c0 -24 40 -225 46 -231 4 -3 4 10 1 29 -3 19 -9 67 -12
105 -4 39 -9 78 -11 88 -5 17 -24 24 -24 9z"/>
<path d="M1225 2644 l-30 -13 30 6 c32 6 41 11 34 17 -2 2 -17 -2 -34 -10z"/>
<path d="M1175 2630 c-4 -6 -11 -7 -17 -4 -7 4 -8 2 -4 -4 7 -12 36 -5 36 9 0
12 -7 11 -15 -1z"/>
<path d="M14587 2623 c-12 -11 -8 -23 8 -23 8 0 15 7 15 15 0 16 -12 20 -23 8z"/>
<path d="M14305 2562 c61 -58 84 -70 155 -77 36 -3 83 -8 105 -11 27 -3 37 -2
30 5 -5 5 -52 13 -104 17 -94 7 -94 7 -152 56 -69 57 -90 63 -34 10z"/>
<path d="M945 2489 c-4 -5 14 -9 41 -9 55 0 55 5 2 13 -21 3 -40 1 -43 -4z"/>
<path d="M14764 2469 c-3 -5 18 -9 47 -9 29 0 50 2 48 4 -10 9 -90 13 -95 5z"/>
<path d="M6202 2400 c10 -28 -11 -52 -39 -45 -18 4 -24 2 -21 -7 6 -19 60 -21
83 -4 18 14 18 15 3 16 -10 0 -18 5 -18 11 0 5 6 7 13 3 7 -5 7 -1 -3 12 -22
29 -23 30 -18 14z"/>
<path d="M4860 2265 c1 -26 2 -28 11 -12 8 14 8 22 0 30 -8 8 -11 3 -11 -18z"/>
<path d="M0 2142 c0 -23 4 -42 10 -42 6 0 7 15 4 38 -8 51 -14 53 -14 4z"/>
<path d="M720 2035 c0 -57 2 -65 19 -65 41 0 46 8 43 70 -4 59 -4 60 -33 60
l-29 0 0 -65z"/>
<path d="M1455 2078 c-3 -8 -4 -88 -3 -178 l3 -165 10 173 c9 155 5 211 -10
170z"/>
<path d="M1576 1998 c-10 -155 -18 -413 -13 -408 3 3 10 91 16 195 7 105 14
216 17 248 2 32 0 57 -5 57 -5 0 -12 -42 -15 -92z"/>
<path d="M2054 1870 l1 -90 31 0 c17 0 33 2 35 5 6 5 -9 156 -15 162 -2 2 -15
6 -29 8 l-25 5 2 -90z"/>
<path d="M1416 1823 c-4 -54 -10 -127 -14 -163 l-7 -65 -65 3 c-87 3 -346 32
-905 98 -109 13 -275 37 -397 59 l-28 5 0 -609 0 -608 53 9 c155 28 274 100
782 474 149 109 272 191 383 252 l162 90 1 -142 c2 -284 29 -217 49 122 7 112
10 205 8 208 -3 2 -8 -44 -12 -104 -4 -60 -11 -122 -16 -138 -7 -22 -9 -14 -6
36 2 36 7 79 9 95 7 40 19 475 14 475 -3 0 -8 -44 -11 -97z"/>
<path d="M5596 1911 c-10 -15 18 -31 34 -20 12 8 11 9 -5 7 -12 -2 -19 2 -17
10 2 14 -4 16 -12 3z"/>
<path d="M5535 1871 c-3 -2 -2 -8 1 -12 8 -14 90 -10 103 4 9 11 0 13 -45 13
-30 -1 -57 -3 -59 -5z"/>
<path d="M10627 1863 c-16 -3 -25 -9 -21 -15 4 -6 2 -8 -4 -5 -12 8 -42 -2
-42 -14 0 -4 8 -6 18 -2 9 3 5 -3 -10 -15 -32 -26 -46 -29 -27 -4 13 15 12 16
-4 3 -9 -8 -15 -16 -13 -19 3 -2 -1 -17 -9 -31 -16 -33 -32 -121 -40 -221 -3
-41 -12 -156 -20 -255 -8 -99 -22 -308 -30 -464 -11 -219 -18 -286 -29 -295
-11 -9 -15 -65 -21 -268 l-7 -258 2316 0 2316 0 0 744 0 745 -52 6 c-91 10
-602 25 -873 25 -768 0 -1442 63 -2427 225 -634 104 -906 135 -1021 118z"/>
<path d="M1443 1650 c0 -41 2 -58 4 -37 2 20 2 54 0 75 -2 20 -4 3 -4 -38z"/>
<path d="M10188 1593 c6 -2 18 -2 25 0 6 3 1 5 -13 5 -14 0 -19 -2 -12 -5z"/>
<path d="M1619 1528 c0 -34 -2 -72 -4 -83 -2 -11 -8 -132 -15 -270 -10 -234
-9 -273 15 -610 14 -198 28 -406 32 -462 l6 -103 59 0 59 0 -5 43 c-3 23 -8
78 -11 122 -7 104 -63 877 -70 975 -3 41 -10 126 -14 188 -6 73 -15 121 -25
136 -14 22 -14 27 1 57 16 33 10 58 -15 67 -8 2 -12 -16 -13 -60z"/>
<path d="M10283 1583 c9 -2 25 -2 35 0 9 3 1 5 -18 5 -19 0 -27 -2 -17 -5z"/>
<path d="M10378 1573 c12 -2 32 -2 45 0 12 2 2 4 -23 4 -25 0 -35 -2 -22 -4z"/>
<path d="M8915 1298 c-2 -7 -9 -76 -14 -153 l-9 -140 2 148 c1 81 -1 147 -5
147 -10 0 -18 -240 -20 -590 -2 -379 -2 -407 10 -395 11 13 41 170 41 216 0
20 3 39 7 42 10 11 13 91 13 417 1 168 1 308 0 313 0 12 -20 8 -25 -5z"/>
<path d="M10195 1025 c-8 -63 0 -77 45 -73 22 3 24 7 25 60 0 48 -3 58 -17 58
-9 0 -23 3 -31 6 -12 4 -17 -7 -22 -51z"/>
<path d="M3262 940 c0 -14 2 -19 5 -12 2 6 2 18 0 25 -3 6 -5 1 -5 -13z"/>
<path d="M8932 540 c0 -14 2 -19 5 -12 2 6 2 18 0 25 -3 6 -5 1 -5 -13z"/>
<path d="M3290 515 c0 -5 5 -17 10 -25 5 -8 10 -10 10 -5 0 6 -5 17 -10 25 -5
8 -10 11 -10 5z"/>
<path d="M8931 494 c0 -11 3 -14 6 -6 3 7 2 16 -1 19 -3 4 -6 -2 -5 -13z"/>
<path d="M3302 335 c0 -16 2 -22 5 -12 2 9 2 23 0 30 -3 6 -5 -1 -5 -18z"/>
<path d="M3306 268 c-4 -20 -5 -51 -1 -68 5 -21 4 -30 -3 -26 -5 3 -12 -3 -15
-14 -3 -11 -1 -18 4 -14 5 3 9 -2 9 -11 0 -9 -4 -13 -10 -10 -13 8 -13 -11 0
-36 8 -14 7 -19 -1 -19 -8 0 -9 -4 0 -13 11 -14 5 -27 -13 -27 -6 0 -5 4 3 9
11 7 9 11 -9 21 -12 6 -24 9 -28 6 -3 -3 -1 -6 5 -6 6 0 13 -14 17 -31 6 -29
7 -30 58 -27 l53 3 -4 74 c-2 41 -7 82 -12 90 -5 9 -13 32 -19 51 l-10 35 5
-42 c3 -23 2 -50 -3 -60 -4 -11 -9 15 -12 67 -5 74 -6 80 -14 48z"/>
<path d="M3200 127 l0 -126 30 1 c36 1 38 10 8 40 -18 18 -22 36 -25 112 -3
50 -7 93 -9 95 -2 2 -4 -52 -4 -122z m40 -97 c0 -5 -4 -10 -10 -10 -5 0 -10 5
-10 10 0 6 5 10 10 10 6 0 10 -4 10 -10z"/>
</g>
</svg>
